<?xml version="1.0" standalone="no"?>
<!DOCTYPE svg PUBLIC "-//W3C//DTD SVG 20010904//EN"
 "http://www.w3.org/TR/2001/REC-SVG-20010904/DTD/svg10.dtd">
<svg version="1.0" xmlns="http://www.w3.org/2000/svg"
 width="200.000000pt" height="200.000000pt" viewBox="0 0 200.000000 200.000000"
 preserveAspectRatio="xMidYMid meet">

<g transform="translate(0.000000,200.000000) scale(0.100000,-0.100000)"
fill="#000000" stroke="none">
<path d="M855 1678 c-44 -24 -74 -62 -86 -109 l-13 -49 -137 0 c-146 0 -169
-7 -169 -50 0 -22 26 -50 46 -50 8 0 14 -6 14 -12 0 -7 9 -234 19 -504 21
-539 21 -536 84 -574 30 -19 53 -20 387 -20 334 0 357 1 387 20 63 38 62 34
83 578 11 273 20 500 20 505 0 4 6 7 14 7 20 0 46 28 46 50 0 43 -23 50 -169
50 l-137 0 -13 49 c-12 48 -43 87 -88 110 -28 14 -261 14 -288 -1z m269 -110
c32 -45 25 -48 -124 -48 -149 0 -156 3 -124 48 14 20 23 22 124 22 101 0 110
-2 124 -22z m266 -160 c-8 -277 -40 -980 -45 -987 -9 -16 -681 -15 -691 0 -5
8 -40 786 -44 982 0 16 25 17 390 17 306 0 390 -3 390 -12z"/>
<path d="M751 1266 c-16 -19 5 -714 21 -733 14 -17 43 -16 57 1 16 19 -5 714
-21 733 -14 17 -43 16 -57 -1z"/>
<path d="M971 1266 c-8 -9 -11 -115 -9 -371 3 -328 4 -359 21 -369 12 -8 22
-8 35 0 16 10 17 41 20 369 2 370 1 385 -38 385 -10 0 -23 -6 -29 -14z"/>
<path d="M1192 1267 c-16 -19 -37 -714 -21 -733 14 -17 43 -18 57 -1 16 19 37
714 21 733 -14 17 -43 18 -57 1z"/>
</g>
</svg>
